<svg xmlns="http://www.w3.org/2000/svg" viewBox="0 0 62 60"><defs><style>.cls-1{fill:#b8afa3;}.cls-2{fill:#f29100;}</style></defs><title>Asset 2</title><g id="Layer_2" data-name="Layer 2"><g id="Layer_1-2" data-name="Layer 1"><path class="cls-1" d="M11.61,0A34.34,34.34,0,0,0,.39,30.94,33.82,33.82,0,0,0,62,45l-.06.08A33.67,33.67,0,0,1,1.49,29.82,34.2,34.2,0,0,1,11.5.1l.11-.1Z"/><path class="cls-2" d="M14.25,32.27v-3a3.61,3.61,0,0,1,1-2.83,5.06,5.06,0,0,1,3.35-.86h5a5,5,0,0,1,3.32.86,3.54,3.54,0,0,1,1,2.78v3a3.6,3.6,0,0,1-1,2.79,5,5,0,0,1-3.26.83H18.57a5.34,5.34,0,0,1-3.3-.81,3.39,3.39,0,0,1-1-2.8Zm3.14-2v1a2.68,2.68,0,0,0,.37,1.7,2,2,0,0,0,1.46.41H23a1.74,1.74,0,0,0,1.4-.43,2.7,2.7,0,0,0,.35-1.61v-1a2.32,2.32,0,0,0-.43-1.63,2,2,0,0,0-1.46-.43H19.33a2.08,2.08,0,0,0-1.52.44A2.33,2.33,0,0,0,17.39,30.23Z"/><path class="cls-2" d="M28.53,25.62H40.23v2.49H35.86v7.74h-3V28.12H28.52V25.62Z"/><path class="cls-2" d="M40.88,32.27v-3a3.61,3.61,0,0,1,1-2.83,5.05,5.05,0,0,1,3.35-.86h5a5,5,0,0,1,3.31.86,3.54,3.54,0,0,1,1,2.78v3a3.6,3.6,0,0,1-1,2.79,5,5,0,0,1-3.26.83H45.2a5.32,5.32,0,0,1-3.29-.81,3.38,3.38,0,0,1-1-2.8Zm3.14-2v1a2.66,2.66,0,0,0,.38,1.7,2,2,0,0,0,1.46.41h3.77a1.73,1.73,0,0,0,1.4-.43,2.7,2.7,0,0,0,.35-1.61v-1A2.31,2.31,0,0,0,51,28.62a2,2,0,0,0-1.46-.43H46a2.1,2.1,0,0,0-1.52.44,2.34,2.34,0,0,0-.42,1.6Z"/></g></g></svg>