<svg width="52" height="50" viewBox="0 0 52 50" fill="none" xmlns="http://www.w3.org/2000/svg">
<g clip-path="url(#clip0_1009_5564)">
<path d="M9.67472 0C2.64316 6.19502 -1.18499 15.7826 0.327659 25.7858C2.67772 41.3511 17.0944 52.0436 32.524 49.6728C40.6322 48.4284 47.4059 43.8211 51.6674 37.4705L51.6142 37.5402C47.3474 43.3169 40.914 47.463 33.2976 48.6349C17.9345 50.995 3.58158 40.3481 1.2395 24.8498C-0.193394 15.3615 3.20674 6.2567 9.58433 0.0804548L9.67206 0H9.67472Z" fill="#B8AFA3"/>
<path d="M11.8735 26.8934V24.4208C11.8735 23.3239 12.142 22.5408 12.679 22.0635C13.2187 21.5834 14.1492 21.3447 15.4731 21.3447H19.6601C20.9521 21.3447 21.8746 21.5834 22.4249 22.0635C22.9698 22.5435 23.2437 23.3186 23.2437 24.3832V26.8881C23.225 27.9769 22.9433 28.7519 22.4063 29.2132C21.8692 29.6718 20.9654 29.9024 19.6893 29.9024H15.4757C14.2156 29.9024 13.3011 29.6772 12.7296 29.2266C12.1606 28.7707 11.8789 27.9957 11.8789 26.8934H11.8735ZM14.4921 25.1878V26.0057C14.4921 26.7164 14.5958 27.1884 14.8031 27.4191C15.0105 27.6443 15.4172 27.757 16.0234 27.757H19.1656C19.7531 27.757 20.1413 27.6363 20.3327 27.3949C20.5267 27.1509 20.6224 26.703 20.6224 26.054V25.2039C20.6224 24.5361 20.5028 24.0829 20.2662 23.8469C20.0296 23.6082 19.6229 23.4875 19.046 23.4875H16.1084C15.5023 23.4875 15.0796 23.6082 14.843 23.8522C14.6091 24.0963 14.4921 24.5415 14.4921 25.1878Z" fill="#F29100"/>
<path d="M23.7727 21.3525H33.5291V23.431H29.8818V29.8834H27.343V23.431H23.77V21.3525H23.7727Z" fill="#F29100"/>
<path d="M34.0688 26.8934V24.4208C34.0688 23.3239 34.3347 22.5408 34.8717 22.0635C35.4087 21.5834 36.3418 21.3447 37.6657 21.3447H41.8527C43.1474 21.3447 44.0672 21.5834 44.6148 22.0635C45.1598 22.5435 45.4336 23.3186 45.4336 24.3832V26.8881C45.415 27.9769 45.1359 28.7519 44.5989 29.2132C44.0619 29.6718 43.1553 29.9024 41.8793 29.9024H37.6657C36.4029 29.9024 35.4911 29.6772 34.9222 29.2266C34.3506 28.7707 34.0662 27.9957 34.0662 26.8934H34.0688ZM36.6847 25.1878V26.0057C36.6847 26.7164 36.7884 27.1884 36.9984 27.4191C37.2058 27.6443 37.6125 27.757 38.2186 27.757H41.3636C41.9511 27.757 42.3392 27.6363 42.528 27.3949C42.722 27.1509 42.8177 26.703 42.8177 26.054V25.2039C42.8177 24.5361 42.7008 24.0829 42.4615 23.8469C42.2302 23.6082 41.8235 23.4875 41.2413 23.4875H38.3064C37.7002 23.4875 37.2776 23.6082 37.0383 23.8522C36.807 24.0963 36.6874 24.5415 36.6874 25.1878H36.6847Z" fill="#F29100"/>
</g>
<defs>
<clipPath id="clip0_1009_5564">
<rect width="52" height="50" fill="white"/>
</clipPath>
</defs>
</svg>
